<?xml version="1.0" encoding="UTF-8"?>
<svg version="1.1" xmlns="http://www.w3.org/2000/svg" width="166" height="57">
<path d="M0 0 C54.78 0 109.56 0 166 0 C166 18.81 166 37.62 166 57 C111.22 57 56.44 57 0 57 C0 38.19 0 19.38 0 0 Z " fill="#FDFBFA" transform="translate(0,0)"/>
<path d="M0 0 C5.31273595 3.39804696 7.9369639 8.36892512 9.97265625 14.26171875 C10.22265625 17.13671875 10.22265625 17.13671875 9.97265625 19.26171875 C8.97265625 20.26171875 8.97265625 20.26171875 5.92163086 20.37524414 C4.57274354 20.37508509 3.22385011 20.36939487 1.875 20.359375 C0.81171227 20.35725258 0.81171227 20.35725258 -0.27305603 20.35508728 C-2.54536087 20.34947318 -4.8175685 20.33691838 -7.08984375 20.32421875 C-8.62695171 20.31920556 -10.1640612 20.31464234 -11.70117188 20.31054688 C-15.47660017 20.29949917 -19.25195546 20.28222516 -23.02734375 20.26171875 C-23.35734375 19.27171875 -23.68734375 18.28171875 -24.02734375 17.26171875 C-13.79734375 17.26171875 -3.56734375 17.26171875 6.97265625 17.26171875 C3.05002486 7.90673504 3.05002486 7.90673504 -4.21484375 1.94921875 C-9.5352656 0.64867119 -14.43747885 0.14382008 -19.5703125 2.359375 C-24.67260313 5.4806784 -27.51079008 8.29660763 -29.02734375 14.26171875 C-29.42424453 18.64319205 -29.12515849 22.67483032 -28.40234375 27.01171875 C-28.00050397 30.49433019 -28.4425428 32.18534043 -30.02734375 35.26171875 C-29.10501953 35.01035156 -29.10501953 35.01035156 -28.1640625 34.75390625 C-27.35582031 34.55023438 -26.54757813 34.3465625 -25.71484375 34.13671875 C-24.91433594 33.92789063 -24.11382812 33.7190625 -23.2890625 33.50390625 C-21.02734375 33.26171875 -21.02734375 33.26171875 -18.02734375 35.26171875 C-15.19069046 35.57978753 -15.19069046 35.57978753 -12.08984375 35.51171875 C-10.52943359 35.51945312 -10.52943359 35.51945312 -8.9375 35.52734375 C-6.03836759 35.26272495 -4.55240287 34.59014233 -2.02734375 33.26171875 C-0.70734375 33.26171875 0.61265625 33.26171875 1.97265625 33.26171875 C0.97265625 36.26171875 0.97265625 36.26171875 -1.109375 37.93359375 C-4.82089057 39.62290472 -7.65117992 39.59132039 -11.71484375 39.51171875 C-12.39095703 39.5065625 -13.06707031 39.50140625 -13.76367188 39.49609375 C-18.71628902 39.41724611 -18.71628902 39.41724611 -21.02734375 38.26171875 C-23.4051748 38.35010336 -25.78079521 38.50518296 -28.15234375 38.69921875 C-29.43367188 38.80105469 -30.715 38.90289062 -32.03515625 39.0078125 C-33.02257813 39.09160156 -34.01 39.17539062 -35.02734375 39.26171875 C-34.79917969 38.69324219 -34.57101563 38.12476563 -34.3359375 37.5390625 C-32.36571523 32.2468511 -31.91974823 28.90038683 -33.02734375 23.26171875 C-33.72728397 16.48729729 -32.7459041 11.04614596 -29.02734375 5.26171875 C-21.05325635 -3.58158197 -10.67931327 -5.36790879 0 0 Z " fill="#F58E35" transform="translate(67.02734375,6.73828125)"/>
<path d="M0 0 C0.66 0.33 1.32 0.66 2 1 C3.95549256 1.12257461 5.91570618 1.17552388 7.875 1.1875 C8.92429687 1.20167969 9.97359375 1.21585938 11.0546875 1.23046875 C13.99917236 1.00006476 15.44554603 0.35204363 18 -1 C19.32 -1 20.64 -1 22 -1 C21 2 21 2 18.90234375 3.66796875 C15.26894175 5.33551933 12.5496622 5.3646985 8.5625 5.3125 C7.28503906 5.30863281 6.00757813 5.30476563 4.69140625 5.30078125 C1.13166945 5.01072862 -1.68400452 4.28642174 -5 3 C-5 2.34 -5 1.68 -5 1 C-5.66 0.67 -6.32 0.34 -7 0 C-3.83299069 -1.05566977 -3.03571759 -0.97926374 0 0 Z " fill="#F6943F" transform="translate(47,41)"/>
<path d="M0 0 C3.63 0 7.26 0 11 0 C11.33 2.31 11.66 4.62 12 7 C8.04 7 4.08 7 0 7 C0 4.69 0 2.38 0 0 Z " fill="#757677" transform="translate(105,30)"/>
<path d="M0 0 C6.93 0 13.86 0 21 0 C20.67 0.99 20.34 1.98 20 3 C13.4 3 6.8 3 0 3 C0 2.01 0 1.02 0 0 Z " fill="#F58C31" transform="translate(45,16)"/>
<path d="M0 0 C2.475 0.99 2.475 0.99 5 2 C5 1.34 5 0.68 5 0 C5.99 0 6.98 0 8 0 C8 2.31 8 4.62 8 7 C7.236875 6.814375 6.47375 6.62875 5.6875 6.4375 C2.91032625 5.77180827 2.91032625 5.77180827 0 7 C0 4.69 0 2.38 0 0 Z " fill="#222324" transform="translate(126,30)"/>
<path d="M0 0 C1.67542976 0.28604898 3.34385343 0.61781233 5 1 C5 2.65 5 4.3 5 6 C2.625 6.625 2.625 6.625 0 7 C-0.66 6.34 -1.32 5.68 -2 5 C-1.46428571 1.46428571 -1.46428571 1.46428571 0 0 Z " fill="#5F6060" transform="translate(95,30)"/>
<path d="M0 0 C0.66 0 1.32 0 2 0 C2 0.99 2 1.98 2 3 C2.66 3 3.32 3 4 3 C4 2.01 4 1.02 4 0 C4.66 0 5.32 0 6 0 C6 2.31 6 4.62 6 7 C5.34 7 4.68 7 4 7 C4 6.34 4 5.68 4 5 C3.34 5 2.68 5 2 5 C2 5.66 2 6.32 2 7 C1.34 7 0.68 7 0 7 C0 4.69 0 2.38 0 0 Z " fill="#363838" transform="translate(83,30)"/>
<path d="M0 0 C0.33 0.66 0.66 1.32 1 2 C2.98 1.67 4.96 1.34 7 1 C7 1.66 7 2.32 7 3 C3.49223216 4.60355101 0.85645121 5.22036864 -3 5 C-1.125 1.125 -1.125 1.125 0 0 Z " fill="#F5882A" transform="translate(35,41)"/>
<path d="M0 0 C1.65 0 3.3 0 5 0 C4.01 0.33 3.02 0.66 2 1 C2 1.66 2 2.32 2 3 C2.99 3 3.98 3 5 3 C5 4.32 5 5.64 5 7 C3.35 7 1.7 7 0 7 C0 4.69 0 2.38 0 0 Z " fill="#3E4040" transform="translate(70,30)"/>
<path d="M0 0 C4 4.75 4 4.75 4 7 C1.69 7 -0.62 7 -3 7 C-1.125 2.25 -1.125 2.25 0 0 Z " fill="#38393A" transform="translate(121,30)"/>
<path d="M0 0 C1.65 0 3.3 0 5 0 C5.33 2.31 5.66 4.62 6 7 C4.02 7 2.04 7 0 7 C0 4.69 0 2.38 0 0 Z " fill="#313233" transform="translate(111,30)"/>
<path d="M0 0 C0.99 0 1.98 0 3 0 C3 2.31 3 4.62 3 7 C2.34 7 1.68 7 1 7 C0.67 6.01 0.34 5.02 0 4 C-0.66 3.34 -1.32 2.68 -2 2 C-1.34 2 -0.68 2 0 2 C0 1.34 0 0.68 0 0 Z " fill="#3F4141" transform="translate(131,30)"/>
<path d="M0 0 C1.32 0 2.64 0 4 0 C3.67 0.99 3.34 1.98 3 3 C0.4375 4.1875 0.4375 4.1875 -2 5 C-1.34 3.35 -0.68 1.7 0 0 Z " fill="#F58D34" transform="translate(65,40)"/>
</svg>
