<?xml version="1.0" encoding="UTF-8"?>
<svg version="1.1" xmlns="http://www.w3.org/2000/svg" width="5950" height="5523">
<path d="M0 0 C37.74969571 -0.61748643 75.79886135 1.10015489 113.34521484 5.07080078 C114.10525818 5.15116577 114.86530151 5.23153076 115.64837646 5.31433105 C157.66364765 9.81117492 199.30836594 16.99825862 240.34521484 27.07080078 C241.08690918 27.25278015 241.82860352 27.43475952 242.59277344 27.62225342 C265.13311347 33.17964312 287.29167909 39.83302822 309.34521484 47.07080078 C310.02434937 47.29274109 310.70348389 47.5146814 311.40319824 47.74334717 C351.61866657 60.89541587 390.36527237 77.4495946 428.34521484 96.07080078 C429.4813623 96.62525879 430.61750977 97.1797168 431.78808594 97.75097656 C447.96426851 105.66156523 463.79930021 113.98456931 479.34521484 123.07080078 C480.95976562 124.01076904 480.95976562 124.01076904 482.60693359 124.96972656 C502.2243359 136.41227063 521.57077253 148.28388332 540.34521484 161.07080078 C540.92335938 161.46267578 541.50150391 161.85455078 542.09716797 162.25830078 C558.51802283 173.39799136 574.53694414 185.08036063 590.34521484 197.07080078 C590.90515137 197.49425781 591.46508789 197.91771484 592.04199219 198.35400391 C600.69427692 204.90616913 609.12821068 211.70793731 617.52490234 218.58251953 C619.11783349 219.88489457 620.71551004 221.1814611 622.31396484 222.47705078 C632.48617393 230.7344911 642.42412888 239.26233966 652.12646484 248.06689453 C654.13829877 249.8839206 656.17181918 251.6702447 658.22021484 253.44580078 C663.10750822 257.71001293 667.8827484 262.09524657 672.64404297 266.49902344 C673.78161789 267.55007214 674.92095454 268.59921717 676.06201172 269.64648438 C685.21978791 278.0579777 694.10621819 286.72708021 702.90771484 295.50830078 C703.42458862 296.02258636 703.9414624 296.53687195 704.47399902 297.06674194 C709.78435395 302.35607768 715.02736404 307.66014631 719.87426758 313.38549805 C721.45691491 315.19877847 723.12708982 316.88603985 724.84521484 318.57080078 C727.88116409 321.55952415 730.69030143 324.68786557 733.47021484 327.91455078 C735.51880578 330.27043036 737.61724486 332.57587538 739.72021484 334.88330078 C743.59555227 339.1768871 747.26742794 343.6016808 750.90380859 348.09814453 C753.62242288 351.40832928 756.416434 354.645415 759.22021484 357.88330078 C765.15953208 364.7743298 770.79872341 371.86155325 776.34521484 379.07080078 C776.95413574 379.8590625 777.56305664 380.64732422 778.19042969 381.45947266 C786.70567343 392.49378308 795.04001111 403.62098501 802.97021484 415.08398438 C804.30817909 417.01728569 805.65415354 418.94478735 807.00146484 420.87158203 C827.62768418 450.48491261 846.34203832 481.25339833 863.34521484 513.07080078 C863.84214844 513.99925812 863.84214844 513.99925812 864.34912109 514.94647217 C875.21256899 535.27135686 885.11856892 555.95406803 894.34521484 577.07080078 C894.62903015 577.71964233 894.91284546 578.36848389 895.20526123 579.0369873 C928.79314222 655.97742851 951.85002172 737.38237046 974.16094971 889.03637695 C974.33674165 890.97725045 974.51832223 892.91759706 974.70019531 894.85791016 C976.29319231 912.47792444 976.56740023 930.07694063 976.65771484 947.75830078 C976.66734253 948.81721527 976.67697021 949.87612976 976.68688965 950.96713257 C976.88533435 976.39100932 975.30298483 1003.13555065 957.09521484 1022.82080078 C950.08941599 1029.27229467 942.42398139 1033.33635585 933.47021484 1036.38330078 C932.76405029 1036.6257251 932.05788574 1036.86814941 931.33032227 1037.11791992 C918.63823853 1041.1701686 905.81260582 1041.37440731 892.63640785 1041.38933849 C890.75580734 1041.39864004 888.87521082 1041.40877926 886.99461887 1041.41967569 C881.84238453 1041.44698214 876.69017797 1041.46203505 871.5378899 1041.47486128 C865.95013578 1041.49077615 860.36243172 1041.51764976 854.77471328 1041.54286587 C843.73905396 1041.59067704 832.70338355 1041.62709899 821.66766895 1041.65938036 C812.50851467 1041.68631881 803.34938227 1041.71740227 794.19024968 1041.75088632 C724.72695311 1042.00356587 655.2635229 1042.12819083 412.60588225 1042.10051707 C395.88987432 1042.08998665 379.17386572 1042.08085017 362.45785689 1042.07187002 C308.37865183 1042.04278712 254.29944861 1042.01132046 200.22025072 1041.97092418 C196.83479424 1041.96839596 193.44933775 1041.96587626 190.06388126 1041.96335638 C187.52096003 1041.96146358 184.97803879 1041.95956978 182.43511756 1041.95767579 C174.7889332 1041.95198161 167.14274884 1041.94629283 159.49656447 1041.94061698 C157.7942004 1041.93935263 156.09183634 1041.93808692 154.38947228 1041.93681987 C99.16727383 1041.895722 43.94508413 1041.86984169 -11.27712705 1041.853989 C-51.37522293 1041.84246989 -91.47331314 1041.82920378 -131.5714016 1041.80147076 C-132.3951039 1041.80090184 -133.2188062 1041.80033293 -134.06746918 1041.79974678 C-152.13954553 1041.78722151 -170.21162085 1041.773559 -188.28369554 1041.75883384 C-194.74379591 1041.75358342 -201.20389635 1041.74843133 -207.66399684 1041.74333302 C-209.27009161 1041.74206541 -210.87618638 1041.74079355 -212.48228114 1041.73951742 C-237.95621395 1041.71933528 -263.43013257 1041.71116253 -288.90407277 1041.7093107 C-314.42039784 1041.70738249 -339.93668287 1041.69282499 -365.4529889 1041.66081722 C-368.97558916 1041.6563999 -372.49818957 1041.65212163 -376.0207901 1041.64792633 C-376.71114384 1041.64709874 -377.40149757 1041.64627114 -378.11277112 1041.64541847 C-388.35735955 1041.63347877 -398.60190771 1041.63264455 -408.8465004 1041.63845634 C-420.2432001 1041.6448528 -431.63979098 1041.63818005 -443.03646799 1041.61363265 C-448.76841079 1041.60169568 -454.5001686 1041.59599673 -460.23211558 1041.60796712 C-465.45139782 1041.61874138 -470.67032039 1041.61093156 -475.88956357 1041.58874141 C-477.75814022 1041.58397139 -479.62674924 1041.58576985 -481.49530802 1041.59523201 C-496.35644846 1041.66468154 -512.019591 1040.61326788 -525.27978516 1033.19580078 C-525.93527344 1032.84775391 -526.59076172 1032.49970703 -527.26611328 1032.14111328 C-532.09724003 1029.52084115 -536.55226297 1026.7257751 -540.65478516 1023.07080078 C-541.30447266 1022.52423828 -541.95416016 1021.97767578 -542.62353516 1021.41455078 C-555.33477154 1009.87665929 -560.87866059 993.02163983 -561.81103516 976.26220703 C-562.40273 956.11992843 -556.30880647 938.20098725 -542.46728516 923.38330078 C-522.33147132 904.09925572 -493.90238595 905.90879587 -468.00518799 905.95727539 C-465.84890488 905.95755798 -463.69262168 905.95739478 -461.53633863 905.9568302 C-455.62672024 905.95654035 -449.71712214 905.9624676 -443.80750842 905.96940289 C-437.36845355 905.97581525 -430.92939781 905.97629089 -424.49034023 905.97747517 C-413.20187188 905.98014971 -401.91340987 905.98671639 -390.62494469 905.99544716 C-373.01941201 906.00899436 -355.41388044 906.01540519 -337.80834356 906.02057721 C-330.56908359 906.02273258 -323.32982368 906.02510335 -316.09056377 906.02748585 C-315.28167982 906.02775037 -314.47279587 906.02801488 -313.63940029 906.02828742 C-301.0526616 906.03243425 -288.46592365 906.03768539 -275.87918568 906.04359722 C-274.60381784 906.04419481 -274.60381784 906.04419481 -273.302685 906.04480447 C-269.84935112 906.04642312 -266.39601723 906.04804399 -262.94268335 906.04966551 C-190.43907214 906.08363706 -117.93545664 906.08880205 -45.43183842 906.09021661 C-40.74646779 906.09030903 -36.06109716 906.09042987 -31.37572653 906.09055786 C65.33103959 906.0931533 162.03778539 906.07484613 451.37829781 905.8350811 C453.26451335 905.83284545 455.1507289 905.83061047 457.03694444 905.82837618 C457.96951803 905.82727144 458.90209161 905.82616669 459.86292501 905.82502847 C463.62336629 905.82057552 467.38380758 905.81612723 471.14424887 905.81168081 C473.01922672 905.80946132 474.89420457 905.8072373 476.76918242 905.80500875 C506.67723335 905.76947404 536.58528233 905.74340965 566.49334673 905.7224111 C597.49657026 905.70057028 628.49976406 905.6677712 659.50296193 905.62209922 C662.83584005 905.61723005 666.16871822 905.61240536 669.50159645 905.60761452 C670.31970232 905.60643364 671.13780819 905.60525275 671.98070514 905.60403609 C684.9514786 905.58557097 697.92223919 905.576958 710.89302417 905.57233954 C723.66001079 905.56756995 736.4269473 905.55205617 749.19390682 905.52513512 C756.02974159 905.51100759 762.86548805 905.50194038 769.70133924 905.50579262 C775.92065902 905.50919562 782.13979846 905.4988845 788.35908125 905.47756527 C790.59757044 905.47230207 792.8360784 905.4720575 795.0745674 905.47740515 C813.34576305 906.17195889 813.34576305 906.17195889 829.97021484 899.82080078 C835.22564741 893.73556307 834.62417253 886.68427481 834.34521484 879.07080078 C833.99135534 875.02609632 833.44020515 871.02403688 832.84521484 867.00830078 C832.67070801 865.81986572 832.49620117 864.63143066 832.31640625 863.40698242 C818.01905246 769.43006068 790.07732277 677.53207583 709.34521484 521.07080078 C708.28595556 519.34985608 707.22730404 517.62853705 706.16943359 515.90673828 C691.04187616 491.44370621 674.11210507 467.94432532 655.76904297 445.79443359 C653.75681012 443.35850013 651.77213735 440.90037603 649.78271484 438.44580078 C641.21567684 428.00276905 632.36095301 417.86535285 623.13305664 408.00219727 C621.74238909 406.49986612 620.36333799 404.98677862 618.98901367 403.46948242 C612.46246564 396.2664788 605.732256 389.30146019 598.84643555 382.44165039 C597.14497707 380.74560352 595.44900222 379.04420257 593.75341797 377.34228516 C588.64922175 372.23497699 583.53426659 367.20810504 578.0378418 362.51831055 C575.46536538 360.31836641 573.00951315 358.00286046 570.53271484 355.69580078 C565.91221935 351.42684884 561.15414733 347.39048784 556.25146484 343.44580078 C553.54349151 341.23283333 550.89297867 338.9690348 548.25146484 336.67797852 C541.70112339 330.99760428 535.01142328 325.58326809 528.07861328 320.37451172 C526.23827225 318.9903679 524.40489627 317.59730502 522.57177734 316.20361328 C455.27272453 265.18834122 380.44664399 224.8336559 164.34521484 152.07080078 C163.68336182 151.92940674 163.02150879 151.7880127 162.33959961 151.64233398 C115.57840291 141.67139954 67.43120453 135.0119299 19.56005859 134.86767578 C18.10157239 134.86064814 16.64308648 134.85356138 15.18460083 134.84642029 C10.55063424 134.8270389 5.91671788 134.82198559 1.28271484 134.82080078 C0.49140545 134.82035892 -0.29990395 134.81991707 -1.11519241 134.81946182 C-25.29717688 134.81238775 -49.30982206 135.14292678 -73.36968994 137.81756592 C-75.76263656 138.0827529 -78.15657856 138.33724031 -80.55078125 138.59082031 C-165.33875109 147.68215435 -247.92106701 171.23892176 -397.21337891 241.96142578 C-401.48952162 244.42049141 -405.80519265 246.79113155 -410.14892578 249.12817383 C-421.62436986 255.31652032 -432.64372023 262.16032854 -443.64111328 269.15673828 C-446.61336216 271.04449194 -449.59382035 272.91858681 -452.57666016 274.78955078 C-462.22998292 280.86102363 -471.70580404 287.06448097 -480.90478516 293.80371094 C-483.51605501 295.69440437 -486.16429553 297.53117006 -488.80859375 299.37524414 C-498.30151618 306.00697699 -507.51358398 312.96444839 -516.65478516 320.07080078 C-517.2801416 320.55436035 -517.90549805 321.03791992 -518.54980469 321.53613281 C-526.04831753 327.33581079 -533.37207329 333.30080693 -540.57666016 339.46142578 C-543.37144705 341.8455217 -546.2252956 344.14885593 -549.09228516 346.44580078 C-554.77762841 351.06722015 -560.09074541 356.05033676 -565.42822266 361.06298828 C-567.89362415 363.37456923 -570.40018749 365.62189242 -572.96728516 367.82080078 C-576.64963557 370.99280412 -580.02819586 374.42880514 -583.43994141 377.88720703 C-585.43137976 379.85054749 -587.46781094 381.69159747 -589.59228516 383.50830078 C-596.55985677 389.50429866 -602.90799422 396.09396526 -608.87744141 403.07470703 C-610.88747292 405.33212704 -613.00311469 407.44815791 -615.15478516 409.57080078 C-618.54746914 412.92336857 -621.745792 416.3655576 -624.85009766 419.98486328 C-626.87129791 422.32105579 -628.94857355 424.60044929 -631.02978516 426.88330078 C-634.87528698 431.14960667 -638.55209782 435.52249378 -642.16259766 439.98876953 C-643.95872124 442.20999447 -645.76487051 444.41980455 -647.58447266 446.62158203 C-655.64566714 456.40623885 -663.33067453 466.44174732 -670.85986328 476.640625 C-671.99581155 478.17860501 -673.13476016 479.71437737 -674.27783203 481.24707031 C-689.69878295 501.93311891 -703.68845477 523.77368894 -716.65478516 546.07080078 C-717.12368164 546.86728027 -717.59257813 547.66375977 -718.07568359 548.484375 C-757.92422894 616.19461427 -786.44651499 690.00757789 -805.65478516 766.07080078 C-805.83334045 766.77513245 -806.01189575 767.47946411 -806.19586182 768.20513916 C-818.48447606 816.79954795 -826.43893714 866.1467623 -830.65478516 916.07080078 C-830.7164386 916.79384399 -830.77809204 917.51688721 -830.84161377 918.26184082 C-838.07878457 1004.27408043 -829.33420281 1091.63728947 -743.11181641 1347.15283203 C-730.07803785 1373.41815409 -724.5266738 1402.51140266 -733.65478516 1431.07080078 C-735.92006248 1437.62711214 -738.48538065 1444.05735353 -741.12207031 1450.47192383 C-741.53362319 1451.47426465 -741.53362319 1451.47426465 -741.95349026 1452.49685478 C-742.54594753 1453.93970844 -743.13869 1455.38244502 -743.73169136 1456.82507515 C-756.36555191 1487.56104649 -768.84827501 1518.35600096 -781.23071289 1549.1940918 C-783.50051316 1554.8469387 -785.77269792 1560.49882353 -788.04553795 1566.1504488 C-800.65961955 1597.5201802 -813.16111825 1628.93343096 -825.58990097 1660.37701035 C-827.1014683 1664.20075539 -828.61401382 1668.02411313 -830.12670898 1671.84741211 C-830.62209748 1673.09959343 -831.11748432 1674.35177541 -831.61286926 1675.60395813 C-832.06498276 1676.74672714 -832.51709625 1677.88949615 -832.98291016 1679.06689453 C-833.83057509 1681.20946922 -834.67823176 1683.35204718 -835.52587891 1685.49462891 C-835.91888184 1686.48793213 -836.31188477 1687.48123535 -836.71679688 1688.50463867 C-837.53067739 1690.56242166 -838.34413282 1692.6203728 -839.15722656 1694.6784668 C-843.5716119 1705.8505191 -848.01045452 1717.01187302 -852.54150391 1728.13720703 C-853.08433014 1729.47518593 -853.08433014 1729.47518593 -853.63812256 1730.8401947 C-856.08539151 1736.82282547 -858.7354284 1742.64724598 -861.65869141 1748.41455078 C-862.82289893 1751.51910418 -862.9691704 1753.7787382 -862.65478516 1757.07080078 C-861.01204102 1759.87936333 -860.18071297 1761.24085668 -857.65478516 1763.07080078 C-849.25704902 1765.12617954 -842.96705554 1762.6074514 -835.02197266 1759.72314453 C-832.3240562 1758.77829262 -829.62147067 1757.84705364 -826.91943359 1756.9140625 C-826.23090616 1756.67434125 -825.54237873 1756.43462 -824.83298683 1756.18763447 C-817.85062537 1753.76502897 -810.79986315 1751.58637497 -803.72509766 1749.44970703 C-802.44643144 1749.06224173 -801.16778586 1748.67470833 -799.88916016 1748.28710938 C-797.24006912 1747.48513528 -794.59029981 1746.68544882 -791.94006348 1745.88726807 C-787.59048968 1744.57708886 -783.24306253 1743.25987756 -778.89599609 1741.94140625 C-777.75598774 1741.59564985 -777.75598774 1741.59564985 -776.59294891 1741.24290848 C-775.02978173 1740.76877858 -773.46662316 1740.29462028 -771.9034729 1739.82043457 C-769.5037019 1739.09260316 -767.10379262 1738.36522923 -764.70385742 1737.63793945 C-745.09302279 1731.69370149 -725.49660014 1725.70239868 -705.90478516 1719.69580078 C-704.51474085 1719.26965673 -704.51474085 1719.26965673 -703.09661484 1718.83490372 C-676.23025247 1710.59681089 -649.39209293 1702.27295095 -622.59228516 1693.82080078 C-621.83842403 1693.58312107 -621.08456291 1693.34544136 -620.30785751 1693.10055923 C-604.9635459 1688.26208188 -589.62851865 1683.39687487 -574.31884766 1678.44970703 C-572.14054881 1677.74754249 -569.96224495 1677.04539351 -567.78393555 1676.34326172 C-563.92821624 1675.09998354 -560.0762816 1673.84595761 -556.22680664 1672.58349609 C-520.01123973 1660.80827573 -483.85789775 1658.22370871 -449.05102539 1675.75952148 C-440.03706094 1680.43906554 -431.38928944 1685.61453201 -422.79882812 1691.02441406 C-403.41649072 1703.18343147 -383.07483302 1713.77808757 -362.65478516 1724.07080078 C-362.05857361 1724.37179687 -361.46236206 1724.67279297 -360.8480835 1724.98291016 C-292.49471053 1759.44425946 -218.66977464 1783.61586197 -12.65478516 1809.07080078 C-11.6193457 1809.09271484 -10.58390625 1809.11462891 -9.51708984 1809.13720703 C78.8207958 1810.83004419 168.28625126 1797.94899476 345.34521484 1736.07080078 C345.99613098 1735.77326904 346.64704712 1735.4757373 347.31768799 1735.16918945 C364.74159612 1727.19335199 381.98607652 1719.04434793 398.6640625 1709.58349609 C401.53963029 1707.96111237 404.43092904 1706.3696174 407.32568359 1704.78173828 C437.18011458 1688.34950342 465.86954591 1669.98019262 493.34521484 1649.82080078 C514.41273085 1634.3913788 538.90982867 1620.34147401 565.97021484 1623.69580078 C583.84341012 1626.9711072 598.60309658 1637.62773556 609.48193359 1651.86767578 C619.94597726 1667.57509057 624.10644089 1685.54071013 620.69287109 1704.18017578 C617.52984095 1717.26670394 611.16306509 1728.02436117 602.34521484 1738.07080078 C601.10964844 1739.50552734 601.10964844 1739.50552734 599.84912109 1740.96923828 C583.20655312 1759.94765912 561.76840604 1773.13391532 540.34521484 1786.07080078 C538.85078857 1786.97451416 538.85078857 1786.97451416 537.32617188 1787.89648438 C531.02632142 1791.70138382 524.7140195 1795.48499595 518.39257812 1799.25390625 C516.42660247 1800.42605741 514.4613765 1801.59946733 512.49707031 1802.77441406 C490.34465584 1816.02022822 467.86375886 1828.56122234 444.86376953 1840.27783203 C442.50028527 1841.48220536 440.13871822 1842.68963886 437.77978516 1843.90283203 C366.78757191 1880.38271101 290.5325865 1907.3542309 62.34521484 1945.07080078 C61.48526917 1945.11210114 60.62532349 1945.15340149 59.73931885 1945.19595337 C43.93811865 1945.93720189 28.16319171 1946.27440506 12.34521484 1946.25830078 C11.22791992 1946.25769653 10.110625 1946.25709229 8.95947266 1946.25646973 C-83.09532878 1946.12293424 -174.35322105 1932.35062114 -309.65478516 1895.07080078 C-310.38463623 1894.83403625 -311.1144873 1894.59727173 -311.86645508 1894.35333252 C-333.85611758 1887.19987249 -355.39205764 1879.1591359 -376.65478516 1870.07080078 C-377.85200195 1869.5596875 -379.04921875 1869.04857422 -380.28271484 1868.52197266 C-409.66311151 1855.87151866 -438.27802404 1841.6234788 -465.65478516 1825.07080078 C-488.61391158 1811.27148898 -506.86414644 1804.10479748 -533.65478516 1810.07080078 C-538.45318389 1811.3321266 -543.17398425 1812.79209117 -547.90087891 1814.29736328 C-549.24597263 1814.71814781 -550.59133422 1815.13807687 -551.93693542 1815.55723572 C-554.81606532 1816.45587668 -557.6933957 1817.35998177 -560.56939697 1818.26858521 C-565.20931736 1819.73422947 -569.85332245 1821.18662605 -574.49804688 1822.63696289 C-579.44178966 1824.18123577 -584.38531705 1825.72617503 -589.32757568 1827.27519226 C-607.11037164 1832.84826853 -624.91458955 1838.35144955 -642.72229767 1843.84431839 C-645.29084671 1844.63671326 -647.85927637 1845.42949396 -650.42767334 1846.22238159 C-680.17796751 1855.40591543 -709.95734863 1864.4917164 -739.74909019 1873.53973007 C-755.90766132 1878.447508 -772.0584429 1883.38070528 -788.20811462 1888.31767654 C-790.46298816 1889.0069872 -792.7178804 1889.69623664 -794.97277832 1890.38546753 C-802.4983704 1892.68575517 -810.0238739 1894.98633244 -817.54931641 1897.28710938 C-825.97039913 1899.86169279 -834.39167939 1902.43562952 -842.81306267 1905.00922966 C-845.12079382 1905.71449425 -847.42850848 1906.41981278 -849.73622131 1907.12513733 C-857.30687455 1909.43891181 -864.87785631 1911.75160295 -872.44946289 1914.06225586 C-875.40204955 1914.9634391 -878.35460105 1915.86473741 -881.30712891 1916.76611328 C-882.03079588 1916.98702574 -882.75446285 1917.20793819 -883.50005913 1917.43554497 C-892.83206965 1920.28487471 -902.15983209 1923.14761814 -911.48326111 1926.02490234 C-916.24112216 1927.49316678 -921.00034597 1928.95699018 -925.75990772 1930.41973114 C-928.9098752 1931.38817867 -932.05876045 1932.35993509 -935.20620728 1933.33654785 C-972.29264302 1944.84262768 -972.29264302 1944.84262768 -988.09228516 1944.50830078 C-989.54924805 1944.51893555 -989.54924805 1944.51893555 -991.03564453 1944.52978516 C-1005.76572851 1944.40203926 -1019.13343411 1939.04823751 -1030.65478516 1930.07080078 C-1031.42951172 1929.47396484 -1032.20423828 1928.87712891 -1033.00244141 1928.26220703 C-1044.48733969 1918.78667346 -1051.12832982 1905.64236086 -1053.65478516 1891.07080078 C-1053.92176418 1887.13608228 -1053.93193378 1883.20115783 -1053.96728516 1879.25830078 C-1053.99628906 1878.22253906 -1054.02529297 1877.18677734 -1054.05517578 1876.11962891 C-1054.17670124 1860.83546522 -1048.7331192 1846.82109032 -1043.20556641 1832.81298828 C-1042.54956295 1831.13047881 -1041.89408847 1829.44776301 -1041.23908997 1827.76486206 C-1032.74462551 1806.00473901 -1023.98529108 1784.34785912 -1015.24860001 1762.68422318 C-1012.8440294 1756.71958592 -1010.44318002 1750.75345143 -1008.04223633 1744.78735352 C-1007.07600642 1742.38645839 -1006.10977413 1739.98556422 -1005.14353943 1737.58467102 C-1004.66846891 1736.40420008 -1004.1933984 1735.22372913 -1003.70393181 1734.00748634 C-1002.28106479 1730.47229692 -1000.85782221 1726.93725893 -999.4344635 1723.40226746 C-992.4230703 1705.98817298 -985.43273401 1688.56581866 -978.46728516 1671.13330078 C-977.48478199 1668.67496741 -976.50227874 1666.21663408 -975.51977539 1663.75830078 C-973.98285479 1659.9125017 -972.44609126 1656.06663992 -970.90959167 1652.22067261 C-966.02461363 1639.99359683 -961.13487608 1627.76842622 -956.24462891 1615.54345703 C-955.82746927 1614.5005954 -955.41030964 1613.45773376 -954.9805088 1612.38327026 C-950.6565617 1601.57382028 -946.3323589 1590.76447261 -942.00786304 1579.95524216 C-939.86404963 1574.59665793 -937.72033199 1569.2380354 -935.57666016 1563.87939453 C-935.15499258 1562.82534424 -934.733325 1561.77129395 -934.29887962 1560.68530273 C-928.8659904 1547.10418356 -923.43721026 1533.52143229 -918.01336479 1519.93669891 C-915.37482247 1513.32855098 -912.73511973 1506.72086654 -910.09541702 1500.11318207 C-909.16120495 1497.7743728 -908.2272913 1495.43544454 -907.29342651 1493.09649658 C-901.70537745 1479.10269981 -896.11425081 1465.11136914 -890.36181641 1451.18408203 C-889.97254974 1450.24110764 -889.58328308 1449.29813324 -889.18222046 1448.32658386 C-887.49208416 1444.23850051 -885.79356685 1440.15430554 -884.07666016 1436.07739258 C-875.44615427 1415.4628978 -873.02123537 1397.22508759 -881.57666016 1376.00048828 C-883.93479666 1370.33474246 -886.41928732 1364.72350441 -888.88195801 1359.10266113 C-889.15761597 1358.47339722 -889.43327393 1357.8441333 -889.71728516 1357.19580078 C-889.99648804 1356.55880249 -890.27569092 1355.9218042 -890.56335449 1355.26550293 C-921.76310873 1283.92826363 -944.08910575 1207.88405344 -966.96728516 1050.32080078 C-967.04868744 1049.33178772 -967.13008972 1048.34277466 -967.21395874 1047.3237915 C-969.12215412 1023.75810806 -969.86582913 1000.21004274 -969.84228516 976.57080078 C-969.84168091 975.43049408 -969.84107666 974.29018738 -969.8404541 973.11532593 C-969.72007442 888.4891442 -958.21563703 803.78405758 -896.65478516 602.07080078 C-896.24066376 601.07077026 -896.24066376 601.07077026 -895.81817627 600.05053711 C-887.59552988 580.22705015 -878.88189339 560.7108611 -869.34570312 541.48339844 C-867.66690115 538.09525319 -866.00542648 534.6990323 -864.34619141 531.30126953 C-857.2862019 516.92047428 -849.71413672 502.91423654 -841.65478516 489.07080078 C-841.12385254 488.15347168 -840.59291992 487.23614258 -840.04589844 486.29101562 C-829.54110043 468.16552804 -818.44889941 450.38755584 -806.65478516 433.07080078 C-806.26291016 432.49265625 -805.87103516 431.91451172 -805.46728516 431.31884766 C-795.00052213 415.88994546 -784.14862509 400.75231423 -772.65478516 386.07080078 C-771.73937859 384.89635434 -770.82401533 383.72187414 -769.90869141 382.54736328 C-762.05478426 372.49059749 -754.00377425 362.61193874 -745.72973633 352.89770508 C-742.91347941 349.58495032 -740.17436122 346.22398212 -737.46728516 342.82080078 C-732.76582345 337.03111647 -727.65036176 331.6515103 -722.50170898 326.25927734 C-719.26194708 322.86330051 -716.07877901 319.44380332 -713.00634766 315.89501953 C-709.36855692 311.69792491 -705.47253608 307.8575458 -701.49853516 303.97705078 C-699.32837857 301.81227443 -697.30956113 299.55148765 -695.30712891 297.23095703 C-691.61879251 292.97363769 -687.71056905 288.97847985 -683.71728516 285.00830078 C-683.05277344 284.33992188 -682.38826172 283.67154297 -681.70361328 282.98291016 C-677.77524183 279.06215921 -673.72884702 275.35069223 -669.52758789 271.7253418 C-666.77643866 269.29481926 -664.21630249 266.6980092 -661.65478516 264.07080078 C-657.81597472 260.18460502 -653.93077496 256.4450126 -649.76806641 252.90283203 C-647.59802188 251.02159195 -645.48952165 249.08092865 -643.38476562 247.12719727 C-638.17274833 242.29053101 -632.83427102 237.70219169 -627.29150391 233.24267578 C-624.73058487 231.13323729 -622.28355061 228.9419243 -619.84228516 226.69580078 C-615.4677769 222.71396492 -610.90949441 219.05337995 -606.23828125 215.43188477 C-602.42163948 212.47034595 -598.66266798 209.45120249 -594.93505859 206.37841797 C-586.17776176 199.16831601 -577.13968019 192.40137277 -567.95605469 185.74560547 C-565.86504659 184.22382364 -563.78711872 182.686294 -561.71337891 181.14111328 C-538.94818187 164.29097116 -515.02060092 148.50282554 -490.65478516 134.07080078 C-489.68557129 133.4963623 -488.71635742 132.92192383 -487.71777344 132.33007812 C-407.34062445 84.91849846 -320.60299935 49.36180635 0 0 Z " fill="#F5821F" transform="translate(1712.65478515625,1787.92919921875)"/>
<path d="M0 0 C2.33949068 0.0320748 4.67899317 0.06317388 7.01849747 0.09423828 C32.39686925 0.43594193 57.76025348 1.04810687 83.12625504 1.90771484 C90.31162426 2.15106912 97.49749381 2.37476188 104.68380582 2.5881691 C106.17445534 2.63262098 107.66508876 2.67761696 109.15570319 2.72323036 C149.19501321 3.94313857 189.23914447 3.75874553 229.29181943 3.69626489 C239.35093886 3.68100441 249.4100602 3.67359706 259.46918847 3.6669708 C277.42047308 3.65512687 295.37175329 3.64021448 313.32303238 3.62182617 C314.38928784 3.62073605 315.4555433 3.61964593 316.55410954 3.61852277 C328.48379963 3.60621632 340.41348752 3.59264812 352.34317398 3.57720947 C353.42084246 3.57581502 354.49851094 3.57442057 355.60883604 3.57298386 C357.78378087 3.57016492 359.9587257 3.56734527 362.13367053 3.5645249 C363.20871853 3.56313158 364.28376654 3.56173827 365.39139175 3.56030273 C366.46509387 3.5589092 367.53879599 3.55751567 368.64503453 3.55607992 C386.57990308 3.53300703 404.51476841 3.51772094 422.44964951 3.50874335 C433.45977951 3.50292104 444.46986377 3.49063749 455.47997572 3.46977056 C463.00839831 3.45601144 470.53680504 3.44956681 478.06524006 3.44876044 C482.39582006 3.44806068 486.72633193 3.4441649 491.0568943 3.4312973 C550.6505559 3.26188585 550.6505559 3.26188585 570.71683121 21.71875 C583.99745098 35.93937734 588.48386111 54.3028955 588.18167496 73.390625 C587.5004942 92.02366879 580.2137805 107.98844238 566.84183121 120.90625 C549.49268066 135.41425046 527.54916019 138.98707429 505.56069756 138.91072559 C504.15929704 138.91312173 502.75789781 138.91639093 501.3565011 138.92044219 C497.53059231 138.9289995 493.7047826 138.92526208 489.87887247 138.91938647 C485.70697651 138.9151947 481.53509792 138.92263021 477.36320627 138.92853898 C470.05957141 138.93728302 462.75596461 138.93861949 455.45232582 138.93503571 C444.5913174 138.92972048 433.73033605 138.93583223 422.86933057 138.94411864 C402.3420842 138.95934971 381.81485018 138.96106465 361.28759934 138.95859561 C345.43614157 138.95676223 329.58468785 138.95852351 313.73323059 138.96282005 C311.45504576 138.96342246 309.17686092 138.96402365 306.89867609 138.96462366 C303.46558916 138.96553092 300.03250223 138.96643959 296.59941531 138.96735601 C264.68546754 138.97578413 232.77152128 138.98012217 200.85757256 138.97594929 C199.05336747 138.97571472 199.05336747 138.97571472 197.21271379 138.97547542 C191.1165651 138.97466965 185.02041641 138.97382388 178.92426772 138.97296212 C177.71357381 138.97279103 176.5028799 138.97261994 175.25549829 138.97244367 C172.80718263 138.97209702 170.35886697 138.97174849 167.91055131 138.97139808 C129.81048702 138.96604029 91.71044587 138.97397355 53.61038589 138.99243164 C10.79516121 139.01314981 -32.02004913 139.02387477 -74.83527911 139.01985615 C-79.40083162 139.01946081 -83.96638413 139.01909927 -88.53193665 139.01875877 C-89.65607451 139.01866804 -90.78021238 139.01857731 -91.93841503 139.01848383 C-108.90385753 139.01731815 -125.86928555 139.02396384 -142.83472443 139.03457069 C-162.12939721 139.04662155 -181.4240381 139.04818288 -200.71871136 139.03578053 C-211.51332114 139.02915232 -222.30785465 139.03078217 -233.10245832 139.04436904 C-240.31777002 139.05261756 -247.53302463 139.04991073 -254.74833169 139.03839377 C-258.85605975 139.03214145 -262.96363906 139.03052594 -267.07135849 139.04225711 C-270.81723402 139.0528561 -274.56283587 139.04934607 -278.30869709 139.03515258 C-280.27183744 139.0311891 -282.23499131 139.04175511 -284.19810271 139.05312964 C-302.69760224 138.94135139 -319.89119164 134.59080179 -335.03316879 123.65625 C-336.09471176 122.89054687 -336.09471176 122.89054687 -337.17770004 122.109375 C-348.71372505 112.9169606 -356.49898336 98.03523366 -359.03316879 83.65625 C-360.86350026 62.69118543 -357.74988765 42.35693499 -343.91598129 25.73828125 C-331.84812452 12.39353506 -315.98944788 5.22056505 -298.0333252 4.24384308 C-297.284006 4.20784752 -296.53468681 4.17185196 -295.76266098 4.13476562 C-294.94487041 4.09387566 -294.12707985 4.05298569 -293.28450775 4.01085663 C-281.75391909 3.46489487 -270.21328443 3.21433005 -258.67379379 2.9375 C-256.11229318 2.87439868 -253.55079524 2.81118898 -250.98929977 2.74787903 C-243.46014317 2.56312399 -235.93086003 2.38402917 -228.4015336 2.2063489 C-226.27985204 2.15617156 -224.15817818 2.10568039 -222.03650665 2.05508041 C-184.72539477 1.1654583 -147.41578913 0.37251757 -110.09566879 -0.03125 C-109.24126709 -0.04070648 -108.38686539 -0.05016296 -107.50657272 -0.05990601 C-71.66976961 -0.45467501 -35.83592242 -0.49259084 0 0 Z " fill="#F5821F" transform="translate(1602.0331687927246,2335.34375)"/>
<path d="M0 0 C8.55461401 0.00326075 17.10922395 0.00056599 25.66383777 -0.0022025 C42.43057159 -0.0074375 59.19730158 -0.00702357 75.96403576 -0.00412359 C90.66433582 -0.0015941 105.36463449 -0.00095772 120.06493473 -0.00214623 C121.04536488 -0.00222262 122.02579503 -0.002299 123.03593519 -0.0023777 C127.01767497 -0.00268913 130.99941474 -0.00300754 134.98115452 -0.00333746 C172.27459203 -0.00639049 209.56802711 -0.00363434 246.86146424 0.00175943 C279.80975042 0.00648869 312.75803272 0.0060929 345.70631886 0.00129844 C382.87421895 -0.00409217 420.0421169 -0.00615834 457.21001733 -0.00308929 C461.19694495 -0.00276869 465.18387258 -0.00245584 469.17080021 -0.00214623 C470.15220002 -0.00206715 471.13359983 -0.00198808 472.14473903 -0.0019066 C486.78685717 -0.00078228 501.42897373 -0.00207474 516.07109165 -0.00462578 C532.7990943 -0.00752603 549.52709257 -0.00668604 566.25509469 -0.00134504 C574.75074733 0.00128011 583.24639288 0.00249495 591.74204541 -0.00099419 C611.54286534 -0.00838658 631.34318052 0.01949213 651.14380902 0.11028214 C654.44148154 0.12536376 657.73915568 0.13876375 661.03683979 0.1510485 C670.76278413 0.18813489 680.48837678 0.2406064 690.21402703 0.32612586 C694.4437861 0.36322932 698.67336021 0.39473854 702.90326046 0.40978408 C744.34493442 0.57025428 744.34493442 0.57025428 759.42799855 8.81916954 C760.07760548 9.16020713 760.72721241 9.50124473 761.3965044 9.8526168 C774.73236319 17.15428529 784.33096266 28.68384246 788.92799855 43.13166954 C793.85403073 62.00490127 794.14641563 83.43825609 784.92799855 101.13166954 C774.99301293 117.99989378 760.71529476 127.3985193 742.49831105 133.12385704 C725.98909936 137.09128487 709.00471968 136.41884409 692.15060234 136.38860464 C688.05976124 136.38349583 683.96893521 136.39006502 679.87809629 136.39509131 C672.71972279 136.40229178 665.56137951 136.40210968 658.40300465 136.39699699 C647.75776576 136.38941467 637.11255223 136.39330857 626.46731349 136.3994136 C607.45066255 136.40993401 588.43402507 136.40903658 569.41737286 136.40325578 C552.77226919 136.39822089 536.12717044 136.39691302 519.48206616 136.39930107 C517.8246712 136.39953022 517.8246712 136.39953022 516.13379352 136.39976401 C511.64825275 136.40038671 507.16271198 136.40102351 502.67717121 136.40168353 C460.61005498 136.40779967 418.54294731 136.40225794 376.4758324 136.39148974 C339.12728229 136.38200204 301.77874581 136.38284524 264.43019581 136.39241172 C222.44662698 136.40312953 180.46306572 136.40736259 138.47949571 136.4011872 C134.00066706 136.40054579 129.52183841 136.39992011 125.04300976 136.39930107 C123.94024927 136.39914291 122.83748877 136.39898476 121.70131129 136.39882181 C105.07288006 136.39655007 88.4444543 136.39920151 71.81602383 136.40426017 C52.89850451 136.4099866 33.98100073 136.40853233 15.06348334 136.39769868 C4.48544375 136.39184014 -6.09256217 136.39142241 -16.67060087 136.39899103 C-23.7478643 136.40349482 -30.82510089 136.40065048 -37.90236036 136.3919815 C-41.92708157 136.38725117 -45.95173619 136.38553982 -49.97645517 136.39279346 C-113.65874485 136.49866603 -113.65874485 136.49866603 -136.7243452 114.67073204 C-150.14464262 100.15626727 -156.18156432 82.72913219 -156.07200145 63.13166954 C-154.83807879 45.38668642 -147.23014186 29.1355871 -134.07200145 17.13166954 C-118.62776905 4.91102881 -101.55038774 0.96169376 -82.17011547 0.51475669 C-81.44982835 0.49628272 -80.72954122 0.47780874 -79.98742722 0.45877495 C-53.33555368 -0.21091976 -26.65864152 -0.010783 0 0 Z " fill="#F5821F" transform="translate(1398.0720014544204,3048.8683304646984)"/>
<path d="M0 0 C28.05 0 56.1 0 85 0 C89.95 9.24 94.9 18.48 100 28 C104.7963835 36.47541878 104.7963835 36.47541878 109.609375 44.94140625 C113.59232548 51.99918503 117.38967926 59.1540329 121.1875 66.3125 C126.55056294 76.41958807 131.98796157 86.47502442 137.58007812 96.45751953 C146.14097001 111.78646178 154.59254914 127.17750117 162.9375 142.625 C163.5346582 143.72714844 164.13181641 144.82929688 164.74707031 145.96484375 C165.29331055 146.97933594 165.83955078 147.99382813 166.40234375 149.0390625 C166.88179443 149.92803223 167.36124512 150.81700195 167.85522461 151.73291016 C169 154 169 154 170 157 C170.66 157 171.32 157 172 157 C172.26321045 156.30374512 172.5264209 155.60749023 172.79760742 154.89013672 C174.11020215 151.73511206 175.63266578 148.77447772 177.23828125 145.7578125 C177.55499786 145.16198364 177.87171448 144.56615479 178.19802856 143.95227051 C179.23310013 142.00818311 180.27251041 140.06646042 181.3125 138.125 C181.67103058 137.45362 182.02956116 136.78223999 182.3989563 136.09051514 C186.96824985 127.53743894 191.62213405 119.04267146 196.4375 110.625 C202.44311673 100.12649496 208.113211 89.46357228 213.7644043 78.77197266 C214.48480693 77.4091499 215.20526527 76.04635658 215.92578125 74.68359375 C216.27688461 74.019505 216.62798798 73.35541626 216.98973083 72.67120361 C220.960135 65.17111766 225.02912378 57.7259021 229.109375 50.28515625 C231.15635689 46.55130966 233.18510064 42.80817022 235.203125 39.05859375 C235.75323242 38.03765625 236.30333984 37.01671875 236.87011719 35.96484375 C237.89370548 34.06363122 238.91546733 32.16143305 239.93457031 30.2578125 C245.43362156 20.0551932 251.24278119 10.07513292 257 0 C285.05 0 313.1 0 342 0 C342 108.24 342 216.48 342 328 C315.93 328 289.86 328 263 328 C262.505 248.305 262.505 248.305 262 167 C257.71 174.92 253.42 182.84 249 191 C242.3125 202.8125 242.3125 202.8125 239.05078125 208.55078125 C235.83867958 214.24573448 232.80402712 220.02398332 229.79248047 225.82666016 C226.6431703 231.86064312 223.3159719 237.77929425 219.9375 243.6875 C214.60158177 253.0285559 209.51719746 262.48570601 204.5 272 C198.98929193 282.4501561 193.35571224 292.80620854 187.48950195 303.06274414 C182.43387172 311.92483355 177.68461339 320.93744091 173 330 C171.68 330 170.36 330 169 330 C168.55309814 329.15107178 168.10619629 328.30214355 167.64575195 327.42749023 C156.81532787 306.83152004 156.81532787 306.83152004 145.5 286.5 C140.30373259 277.43303521 135.37458546 268.24217412 130.5 259 C125.11609405 248.7925304 119.61840954 238.6758345 113.8828125 228.66015625 C108.78398869 219.71507329 103.95897815 210.63062323 99.16967773 201.51708984 C93.01425263 189.86005632 86.49837307 178.49712159 80 167 C79.67 220.13 79.34 273.26 79 328 C52.93 328 26.86 328 0 328 C0 219.76 0 111.52 0 0 Z " fill="#050708" transform="translate(4949,2972)"/>
<path d="M0 0 C0.83063965 0.19867676 1.6612793 0.39735352 2.51708984 0.60205078 C33.24261524 8.15750785 60.5716367 23.70092872 83 46 C83.7417749 46.73573242 83.7417749 46.73573242 84.49853516 47.48632812 C115.34163997 78.49775807 130.95073518 120.95579543 131.3125 164.25 C131.24127038 189.92293641 125.91358423 213.78391978 115 237 C114.48179687 238.10239014 114.48179687 238.10239014 113.953125 239.22705078 C106.62857783 254.50132802 96.71524644 267.79085615 85 280 C83.68322266 281.41152344 83.68322266 281.41152344 82.33984375 282.8515625 C70.35491526 295.46695245 56.44192703 305.0862904 41 313 C40.32356445 313.35046387 39.64712891 313.70092773 38.95019531 314.06201172 C18.86386822 324.3518661 -3.51639903 331.06219441 -26.20703125 331.203125 C-26.96587616 331.21013931 -27.72472107 331.21715363 -28.50656128 331.22438049 C-30.94193522 331.24178869 -33.37706612 331.24823261 -35.8125 331.25 C-37.05962265 331.25101212 -37.05962265 331.25101212 -38.3319397 331.25204468 C-50.46776046 331.23637308 -62.15506047 330.87072301 -74 328 C-74.71462402 327.83902832 -75.42924805 327.67805664 -76.16552734 327.51220703 C-103.05723788 321.35826756 -128.63210508 307.90325889 -148.78125 289.0625 C-150.75737093 287.22554251 -152.78954621 285.52188835 -154.875 283.8125 C-177.41263753 264.04662837 -192.47720482 234.48357668 -199.8125 205.8125 C-200.0074707 205.05412842 -200.20244141 204.29575684 -200.40332031 203.5144043 C-203.52460178 190.50768861 -204.38238404 177.5606673 -204.3125 164.25 C-204.31034485 163.50610016 -204.3081897 162.76220032 -204.30596924 161.99575806 C-204.25241448 150.44325297 -203.75245458 139.26004147 -201 128 C-200.79600586 127.15727539 -200.59201172 126.31455078 -200.38183594 125.44628906 C-197.38709964 113.44554812 -193.47010388 102.09247431 -188 91 C-187.68804688 90.36368652 -187.37609375 89.72737305 -187.0546875 89.07177734 C-171.17483614 57.09421081 -145.71779811 31.25480052 -114 15 C-113.32356445 14.64953613 -112.64712891 14.29907227 -111.95019531 13.93798828 C-78.53437618 -3.18031868 -36.74569563 -9.01034572 0 0 Z M-104.6875 103.6875 C-121.40869032 123.0410065 -126.8171139 148.99229915 -125 174 C-123.03672101 193.57368045 -115.99020217 211.14309555 -103 226 C-102.46890625 226.61488281 -101.9378125 227.22976562 -101.390625 227.86328125 C-86.75087975 243.62637328 -64.24669945 253.30977099 -42.96875 254.375 C-18.97648268 255.07635739 2.2624877 249.58594295 21 234 C22.41925781 232.824375 22.41925781 232.824375 23.8671875 231.625 C43.23577865 214.82838979 50.12869289 192.25870562 52.22265625 167.3515625 C53.07875976 143.75288325 45.82404861 120.62085494 30.4921875 102.65625 C15.08034318 86.22983286 -7.14964046 74.53243338 -29.8828125 73.6640625 C-59.01966528 73.24514357 -84.16021407 82.24632805 -104.6875 103.6875 Z " fill="#050708" transform="translate(3646,2972)"/>
<path d="M0 0 C26.07 0 52.14 0 79 0 C79 53.79 79 107.58 79 163 C112 163 145 163 179 163 C179 109.21 179 55.42 179 0 C205.07 0 231.14 0 258 0 C258 108.24 258 216.48 258 328 C231.93 328 205.86 328 179 328 C179 298.96 179 269.92 179 240 C146 240 113 240 79 240 C79 269.04 79 298.08 79 328 C52.93 328 26.86 328 0 328 C0 219.76 0 111.52 0 0 Z " fill="#050708" transform="translate(2985,2972)"/>
<path d="M0 0 C71.28 0 142.56 0 216 0 C216 25.41 216 50.82 216 77 C171.12 77 126.24 77 80 77 C80 95.81 80 114.62 80 134 C121.91 134 163.82 134 207 134 C207 159.41 207 184.82 207 211 C165.09 211 123.18 211 80 211 C80 224.2 80 237.4 80 251 C126.2 251 172.4 251 220 251 C220 276.41 220 301.82 220 328 C147.4 328 74.8 328 0 328 C0 219.76 0 111.52 0 0 Z " fill="#050708" transform="translate(2404,2972)"/>
<path d="M0 0 C70.95 0 141.9 0 215 0 C215 25.41 215 50.82 215 77 C170.12 77 125.24 77 79 77 C79 95.81 79 114.62 79 134 C120.91 134 162.82 134 206 134 C206 159.41 206 184.82 206 211 C164.09 211 122.18 211 79 211 C79 224.2 79 237.4 79 251 C125.2 251 171.4 251 219 251 C219 276.41 219 301.82 219 328 C146.73 328 74.46 328 0 328 C0 219.76 0 111.52 0 0 Z " fill="#050708" transform="translate(3972,2972)"/>
<path d="M0 0 C31.02 0 62.04 0 94 0 C98.62 8.25 103.24 16.5 108 25 C113.19225797 33.88769683 113.19225797 33.88769683 118.39453125 42.76953125 C124.26075445 52.84423785 129.85631293 63.07162148 135.48925781 73.27783203 C137.29732123 76.53573558 139.13846213 79.77240821 141 83 C148.64720016 70.24267079 155.88924106 57.273156 163.08728027 44.25845337 C166.51827001 38.05744587 169.97510989 31.87101484 173.4375 25.6875 C173.97987305 24.71748047 174.52224609 23.74746094 175.08105469 22.74804688 C179.34277035 15.13876785 183.6724752 7.57316839 188 0 C219.02 0 250.04 0 282 0 C281.08128935 3.6748426 280.16177796 5.62982303 278.18359375 8.76171875 C277.59247803 9.70289551 277.0013623 10.64407227 276.39233398 11.61376953 C275.42469116 13.13526611 275.42469116 13.13526611 274.4375 14.6875 C273.76855713 15.7482373 273.09961426 16.80897461 272.41040039 17.90185547 C270.28093312 21.27262398 268.14279408 24.6376968 266 28 C265.32324219 29.06202637 264.64648438 30.12405273 263.94921875 31.21826172 C260.60779932 36.45504454 257.25768066 41.68618776 253.90234375 46.9140625 C250.25349044 52.60004983 246.62359192 58.29789055 243 64 C237.33850124 72.90621848 231.65285323 81.79679045 225.9609375 90.68359375 C221.06518282 98.32966622 216.18422532 105.9849953 211.31762695 113.6496582 C208.09685904 118.71864217 204.85933326 123.77642294 201.60546875 128.82421875 C200.49536467 130.54896974 199.3854778 132.27386032 198.27563477 133.9987793 C197.20759925 135.65630716 196.13605894 137.31157501 195.06445312 138.96679688 C194.41798828 139.97162109 193.77152344 140.97644531 193.10546875 142.01171875 C192.52949951 142.90334717 191.95353027 143.79497559 191.36010742 144.71362305 C189.8707582 147.03232271 189.8707582 147.03232271 189 150 C189.84599077 151.9249507 189.84599077 151.9249507 191.25390625 153.89453125 C191.77138428 154.6736084 192.2888623 155.45268555 192.82202148 156.25537109 C193.39637939 157.09922363 193.9707373 157.94307617 194.5625 158.8125 C195.77457991 160.63335463 196.98547747 162.45499677 198.1953125 164.27734375 C198.82598633 165.22206543 199.45666016 166.16678711 200.10644531 167.14013672 C203.11189236 171.67930726 206.02511273 176.27577782 208.9375 180.875 C210.11319116 182.7266197 211.28897297 184.57818185 212.46484375 186.4296875 C213.04862793 187.34975586 213.63241211 188.26982422 214.23388672 189.21777344 C217.15179935 193.81447406 220.07617847 198.40705651 223 203 C226.47769716 208.46412292 229.95486757 213.92857805 233.4296875 219.39453125 C239.60466368 229.10608469 245.7933621 238.8086463 252 248.5 C257.05238312 256.38904277 262.09675889 264.28304552 267.125 272.1875 C267.69404053 273.08194824 268.26308105 273.97639648 268.84936523 274.89794922 C271.74447921 279.44994273 274.63707144 284.00352459 277.52734375 288.55859375 C278.70569183 290.41408621 279.88407704 292.26955509 281.0625 294.125 C281.63258789 295.02412109 282.20267578 295.92324219 282.79003906 296.84960938 C285.74538426 301.49971011 288.73152982 306.12606209 291.76953125 310.72265625 C292.37466553 311.64095215 292.9797998 312.55924805 293.60327148 313.50537109 C294.7595328 315.25577578 295.92155518 317.00239238 297.09008789 318.74462891 C297.60434326 319.52370605 298.11859863 320.3027832 298.6484375 321.10546875 C299.33172119 322.12870239 299.33172119 322.12870239 300.02880859 323.17260742 C301 325 301 325 301 328 C288.98774291 328.5118311 276.97811071 328.90162164 264.95713615 329.13986778 C259.37324581 329.25428615 253.79685558 329.40909215 248.21728516 329.65966797 C212.20969695 331.23524798 212.20969695 331.23524798 203.65985107 325.92575073 C198.73102379 320.95927146 196.18276565 315.40398947 194.03500366 308.82151794 C192.34486735 304.21404639 189.61650189 300.35094907 186.875 296.3125 C185.88797757 294.75983639 184.90554161 293.20423837 183.9296875 291.64453125 C180.95515835 286.92840236 177.97780871 282.21405863 175 277.5 C172.02219129 272.78594137 169.04484165 268.07159764 166.0703125 263.35546875 C163.5957561 259.43256179 161.11815517 255.51159149 158.63867188 251.59179688 C157.47246737 249.74727557 156.30720251 247.90216002 155.14257812 246.05664062 C153.22263716 243.01528399 151.29915151 239.97619411 149.375 236.9375 C148.77059082 235.9786792 148.16618164 235.0198584 147.54345703 234.03198242 C146.97997559 233.14357666 146.41649414 232.2551709 145.8359375 231.33984375 C145.33626465 230.54956787 144.8365918 229.75929199 144.32177734 228.94506836 C143.01219149 226.88724995 143.01219149 226.88724995 141 225 C134.4624262 235.05985845 127.98019639 245.15324977 121.54638672 255.27978516 C116.37359755 263.4196292 111.17537779 271.5430142 105.97314453 279.6640625 C101.00859768 287.41688354 96.06059662 295.18007221 91.13085938 302.95507812 C90.09499023 304.58621462 89.03894955 306.20471823 87.9630127 307.80970764 C86.44680478 310.27385193 85.22357741 312.60197494 84.00537109 315.20664978 C78.30516974 326.57388843 78.30516974 326.57388843 72.79094887 328.95315933 C66.3867986 330.40071522 59.87441781 329.95170766 53.36328125 329.66015625 C51.27159953 329.62840294 49.17979037 329.60422579 47.0879364 329.58726501 C41.61162159 329.52269644 36.14311345 329.35607851 30.66986084 329.16729736 C25.07329957 328.99260513 19.47546145 328.91558728 13.87695312 328.83007812 C2.91455914 328.64837379 -8.04206869 328.35870776 -19 328 C-17.66478198 324.57235981 -16.22902449 321.56726715 -14.234375 318.47265625 C-13.40486328 317.17811523 -13.40486328 317.17811523 -12.55859375 315.85742188 C-11.96175781 314.93509766 -11.36492187 314.01277344 -10.75 313.0625 C-9.47384681 311.07429033 -8.1978083 309.08600704 -6.921875 307.09765625 C-5.94250977 305.57615967 -5.94250977 305.57615967 -4.94335938 304.02392578 C-1.94584254 299.35969921 1.02658423 294.67961213 4 290 C5.16391463 288.17047883 6.32797767 286.34105208 7.4921875 284.51171875 C8.06936523 283.60470215 8.64654297 282.69768555 9.24121094 281.76318359 C11.01701247 278.97327219 12.79357387 276.18384594 14.5703125 273.39453125 C20.55215054 264.00199608 26.52098022 254.60163327 32.46142578 245.18286133 C36.88468013 238.17340054 41.33607977 231.18200578 45.7890625 224.19140625 C49.53890712 218.3023331 53.27558418 212.40518385 57 206.5 C61.27693828 199.71974879 65.57041364 192.95023173 69.875 186.1875 C70.4515332 185.2807251 71.02806641 184.3739502 71.62207031 183.43969727 C74.71228654 178.58199048 77.8135704 173.73176298 80.9296875 168.890625 C81.56922363 167.89393799 82.20875977 166.89725098 82.86767578 165.87036133 C84.09433134 163.9591015 85.32431469 162.04997211 86.55810547 160.14331055 C87.11127441 159.2800415 87.66444336 158.41677246 88.234375 157.52734375 C88.72131836 156.77187256 89.20826172 156.01640137 89.70996094 155.23803711 C91.10469889 152.81836209 92.25108853 150.69879205 93 148 C92.28985785 145.80668174 92.28985785 145.80668174 90.7734375 143.8046875 C90.24242432 143.01658691 89.71141113 142.22848633 89.16430664 141.41650391 C88.57383545 140.57780762 87.98336426 139.73911133 87.375 138.875 C86.15102771 137.06859935 84.92840097 135.26128636 83.70703125 133.453125 C82.77044678 132.08317383 82.77044678 132.08317383 81.81494141 130.68554688 C79.13714429 126.72324284 76.59646577 122.68020567 74.0625 118.625 C73.07479609 117.0543243 72.08650519 115.48401758 71.09765625 113.9140625 C70.59637207 113.11774414 70.09508789 112.32142578 69.57861328 111.50097656 C66.73258995 106.99205869 63.86532385 102.49666754 61 98 C56.65263151 91.17545621 52.31657106 84.34406548 48 77.5 C41.36424839 66.98031048 34.68245131 56.49006397 28 46 C24.46907286 40.45717599 20.93894616 34.91385728 17.4140625 29.3671875 C15.12408094 25.76377634 12.82621497 22.16555796 10.5234375 18.5703125 C9.4321718 16.85945145 8.3410208 15.14851723 7.25 13.4375 C6.74839355 12.65802002 6.24678711 11.87854004 5.72998047 11.07543945 C5.26736816 10.34800537 4.80475586 9.62057129 4.328125 8.87109375 C3.9249707 8.24130615 3.52181641 7.61151855 3.10644531 6.96264648 C2 5 2 5 0 0 Z " fill="#050708" transform="translate(4250,2972)"/>
<path d="M0 0 C2.06597168 2.64055961 3.7568702 5.2498301 5.27734375 8.23583984 C5.70208984 9.06546234 6.12683594 9.89508484 6.56445312 10.74984741 C7.01755859 11.64450714 7.47066406 12.53916687 7.9375 13.4609375 C8.41767578 14.40192291 8.89785156 15.34290833 9.39257812 16.31240845 C10.93193733 19.33147793 12.46594003 22.35323505 14 25.375 C15.00097328 27.33870931 16.00227238 29.30225256 17.00390625 31.265625 C22.48512168 42.02149562 27.92130177 52.7990412 33.29272461 63.61019897 C35.99258455 69.03305718 38.77026081 74.40711928 41.625 79.75 C46.41165142 88.75333774 50.95679337 97.87228599 55.5 107 C60.29356449 116.63056465 65.11256088 126.23434735 70.18359375 135.72265625 C74.6395512 144.11122045 78.83157409 152.63257933 83.06280518 161.13586426 C86.94099482 168.92628829 90.83523881 176.69934056 94.9375 184.375 C100.03233681 193.91012862 104.81611664 203.59889318 109.63299561 213.27624512 C114.05035367 222.14734766 118.51211866 230.98195198 123.18359375 239.72265625 C127.63849465 248.10923144 131.82960232 256.62852955 136.05978394 265.12982178 C140.0011614 273.04729345 143.96328685 280.9452468 148.125 288.75 C152.07057386 296.15799878 155.88554713 303.62959005 159.65325928 311.12927246 C160.29759043 312.41113573 160.9432874 313.69231343 161.59039307 314.97277832 C162.49407384 316.76232758 163.39170178 318.55492949 164.2890625 320.34765625 C164.81193848 321.38929932 165.33481445 322.43094238 165.87353516 323.50415039 C167 326 167 326 167 328 C137.63 328 108.26 328 78 328 C74.37 321.4 70.74 314.8 67 308 C21.13 308 -24.74 308 -72 308 C-75.63 314.6 -79.26 321.2 -83 328 C-110.39 328 -137.78 328 -166 328 C-165.15707011 323.78535054 -164.29658161 321.22798059 -162.41015625 317.4921875 C-161.87874023 316.43386719 -161.34732422 315.37554688 -160.79980469 314.28515625 C-159.93983887 312.59712891 -159.93983887 312.59712891 -159.0625 310.875 C-158.46985352 309.70066406 -157.87720703 308.52632812 -157.26660156 307.31640625 C-153.62337074 300.10958612 -149.8904699 292.95359502 -146.09204102 285.82763672 C-141.74833168 277.62543334 -137.63544796 269.30841375 -133.5 261 C-128.72972575 251.41628624 -123.93498154 241.85910583 -118.88671875 232.41796875 C-114.60506982 224.35586726 -110.56737428 216.17151777 -106.5 208 C-101.72970912 198.41629466 -96.93498175 188.85910623 -91.88671875 179.41796875 C-87.60506982 171.35586726 -83.56737428 163.17151777 -79.5 155 C-74.72970912 145.41629466 -69.93498175 135.85910623 -64.88671875 126.41796875 C-60.60506982 118.35586726 -56.56737428 110.17151777 -52.5 102 C-47.72970912 92.41629466 -42.93498175 82.85910623 -37.88671875 73.41796875 C-33.60506147 65.35585152 -29.5677385 57.17135139 -25.5 49 C-19.48360979 36.91773356 -13.39210856 24.88908162 -7 13 C-6.64164063 12.33129883 -6.28328125 11.66259766 -5.9140625 10.97363281 C-3.95118178 7.31114095 -1.98059549 3.6529526 0 0 Z M-3 155 C-3.44690186 156.10472656 -3.89380371 157.20945312 -4.35424805 158.34765625 C-6.07765968 162.60768843 -7.80138038 166.86759551 -9.525177 171.12747192 C-10.29810328 173.03765733 -11.07095117 174.94787446 -11.84371948 176.85812378 C-15.89362977 186.86913438 -19.94648998 196.87887089 -24.0234375 206.87890625 C-24.32862808 207.62796234 -24.63381866 208.37701843 -24.94825745 209.14877319 C-26.37645929 212.65406127 -27.80627591 216.15867284 -29.23901367 219.66210938 C-29.74405589 220.90100986 -30.24902475 222.13994026 -30.75390625 223.37890625 C-31.19033447 224.4469751 -31.6267627 225.51504395 -32.07641602 226.61547852 C-33.06019648 228.72922658 -33.06019648 228.72922658 -33 230 C-12.87 230 7.26 230 28 230 C25.72459403 223.06456416 25.72459403 223.06456416 23.14990234 216.28833008 C22.81880463 215.47910599 22.48770691 214.6698819 22.14657593 213.83613586 C21.79656525 212.98915634 21.44655457 212.14217682 21.0859375 211.26953125 C20.7119986 210.35781662 20.33805969 209.44610199 19.95278931 208.50675964 C18.76295918 205.60752757 17.56909199 202.70997899 16.375 199.8125 C15.59738125 197.92003485 14.8200356 196.02745746 14.04296875 194.13476562 C12.4905717 190.35443872 10.93670142 186.57472239 9.38183594 182.79541016 C5.57404107 173.53595014 1.78756997 164.26774707 -2 155 C-2.33 155 -2.66 155 -3 155 Z " fill="#050708" transform="translate(4739,2972)"/>
<path d="M0 0 C84.81 0 169.62 0 257 0 C257 25.41 257 50.82 257 77 C227.63 77 198.26 77 168 77 C168 159.83 168 242.66 168 328 C141.6 328 115.2 328 88 328 C88 245.17 88 162.34 88 77 C58.96 77 29.92 77 0 77 C0 51.59 0 26.18 0 0 Z " fill="#050708" transform="translate(2674,2972)"/>
<path d="M0 0 C26.4 0 52.8 0 80 0 C80 108.24 80 216.48 80 328 C53.6 328 27.2 328 0 328 C0 219.76 0 111.52 0 0 Z " fill="#050708" transform="translate(3308,2972)"/>
<path d="M0 0 C58.65 0 58.65 0 67.8046875 8.71875 C73.76260112 14.94860158 76.07579521 20.91880651 76.375 29.5 C75.9727814 41.03562937 70.91145025 47.1367903 63 55 C63.99 55.20625 64.98 55.4125 66 55.625 C73.98833166 57.98115439 78.89090345 63.2707322 82.80859375 70.43359375 C86.8157045 79.06530444 87.03196169 88.14359613 83.90625 97.15234375 C79.48326266 106.89520198 73.02208004 113.2279188 63.140625 117.30859375 C43.10536061 123.7798379 21.05442519 119 0 119 C0 79.73 0 40.46 0 0 Z M12 13 C12 24.88 12 36.76 12 49 C17.28 49.061875 22.56 49.12375 28 49.1875 C30.475 49.22846802 30.475 49.22846802 33 49.27026367 C42.9489751 49.36760262 50.89409121 48.81106744 58.51953125 41.7265625 C62.14986098 37.49277427 63.2969851 32.95258943 63.0625 27.4375 C62.26963981 22.5013059 59.94641681 19.03449579 56 16 C50.530341 13.19588207 46.31813668 12.58496524 40.22265625 12.70703125 C39.00563271 12.71339851 39.00563271 12.71339851 37.76402283 12.71989441 C35.19649744 12.73656133 32.62978436 12.77418952 30.0625 12.8125 C28.31186037 12.8275624 26.56120832 12.84124807 24.81054688 12.85351562 C20.53980702 12.88386195 16.27080259 12.94260245 12 13 Z M12 62 C12 76.85 12 91.7 12 107 C20.3221875 107.061875 20.3221875 107.061875 28.8125 107.125 C30.53960205 107.14320801 32.2667041 107.16141602 34.04614258 107.18017578 C51.14602276 107.50810344 51.14602276 107.50810344 66 100 C70.81926455 94.53175718 72.37124712 89.79033608 72.27734375 82.6328125 C71.68459164 77.00584174 69.21983112 73.27791832 65.375 69.25 C53.8229456 60.68005488 39.47713812 61.84951185 25.8125 61.9375 C18.9753125 61.9684375 18.9753125 61.9684375 12 62 Z " fill="#F5821F" transform="translate(3982,3393)"/>
<path d="M0 0 C1.32 0 2.64 0 4 0 C5.97265625 1.984375 5.97265625 1.984375 8.0625 4.75 C11.38969368 9.01143033 14.80475427 13.05509294 18.5 17 C22.79119223 21.60842545 26.80422978 26.37798246 30.75390625 31.28515625 C33.0883059 34.10673495 35.51990598 36.80590712 38 39.5 C41.27418423 43.05670244 44.40642433 46.67161811 47.4375 50.4375 C50.65943533 54.43224521 54.00659729 58.24549867 57.5 62 C61.74481144 66.56295137 65.75371567 71.25767481 69.63671875 76.13671875 C72.97912164 80.18627465 76.5115799 84.07552739 80 88 C80.33 58.96 80.66 29.92 81 0 C85.29 0 89.58 0 94 0 C94 39.6 94 79.2 94 120 C88.47565644 118.89513129 87.77387188 118.19012018 84.25 114.125 C83.8180835 113.63249756 83.38616699 113.13999512 82.94116211 112.63256836 C79.3016457 108.45021784 75.82787242 104.13138326 72.34765625 99.81640625 C69.37922523 96.25527685 66.24350551 92.87356843 63.08618164 89.48071289 C59.30509442 85.39338994 55.80310034 81.11956756 52.3125 76.78125 C49.35823636 73.22814914 46.23086576 69.8597632 43.08374023 66.47827148 C40.11284372 63.2670095 37.30038923 59.97372185 34.5625 56.5625 C30.63120644 51.67321974 26.4573066 47.06839001 22.16040039 42.50219727 C19.26981646 39.42228854 16.64928781 36.31160976 14 33 C13.67 61.71 13.34 90.42 13 120 C8.71 120 4.42 120 0 120 C0 80.4 0 40.8 0 0 Z " fill="#F5821F" transform="translate(4791,3393)"/>
<path d="M0 0 C4.29 0 8.58 0 13 0 C13.33 14.19 13.66 28.38 14 43 C21.63019683 36.45983129 29.1706887 29.99580251 36.56640625 23.22265625 C41.14122733 19.04436862 45.82831418 15.00092345 50.53515625 10.97265625 C51.16639404 10.43237793 51.79763184 9.89209961 52.44799805 9.33544922 C53.71554773 8.25145576 54.98391739 7.16842028 56.25317383 6.08642578 C58.5655515 4.11113033 60.84858915 2.15141085 63 0 C65.06298828 -0.22705078 65.06298828 -0.22705078 67.5703125 -0.1953125 C68.46621094 -0.18886719 69.36210937 -0.18242187 70.28515625 -0.17578125 C71.69087891 -0.15064453 71.69087891 -0.15064453 73.125 -0.125 C74.06988281 -0.11597656 75.01476563 -0.10695313 75.98828125 -0.09765625 C78.32577292 -0.07404522 80.66276123 -0.04111516 83 0 C79.23541738 4.55879837 75.33155265 8.73523884 70.9375 12.6875 C69.79414694 13.72903067 68.6509215 14.77070146 67.5078125 15.8125 C66.92805664 16.3384375 66.34830078 16.864375 65.75097656 17.40625 C63.47300023 19.47967854 61.21336917 21.57249047 58.95410156 23.66625977 C53.01868545 29.16649442 47.03313731 34.60694723 41 40 C42.29751591 43.45405839 43.8044157 46.53113236 45.73046875 49.67578125 C46.27823975 50.57353271 46.82601074 51.47128418 47.39038086 52.39624023 C47.98343018 53.35860596 48.57647949 54.32097168 49.1875 55.3125 C50.11864624 56.83242554 50.11864624 56.83242554 51.06860352 58.38305664 C55.49187838 65.58841886 59.95651172 72.76791875 64.4375 79.9375 C65.04819336 80.91460938 65.65888672 81.89171875 66.28808594 82.8984375 C69.24521961 87.62243149 72.21210833 92.33979782 75.20201111 97.0431366 C76.26645086 98.71888914 77.32770655 100.39666283 78.38891602 102.07446289 C79.73012668 104.1944101 81.07676954 106.31093263 82.42944336 108.42358398 C83.02893799 109.37305908 83.62843262 110.32253418 84.24609375 111.30078125 C84.77904053 112.13778564 85.3119873 112.97479004 85.86108398 113.8371582 C87 116 87 116 87 119 C84.47189319 119.27314479 81.97335213 119.46860383 79.4375 119.625 C78.38079102 119.75068359 78.38079102 119.75068359 77.30273438 119.87890625 C74.88079387 119.99051641 73.27344562 119.87049143 71 119 C68.09498521 116.01123429 66.10290925 112.58042027 64 109 C62.94353168 107.36022441 61.88241297 105.72343457 60.81640625 104.08984375 C59.7295982 102.37376986 58.64504623 100.65626554 57.5625 98.9375 C56.34536863 97.01542452 55.12790693 95.09355818 53.91015625 93.171875 C52.96100342 91.67237305 52.96100342 91.67237305 51.99267578 90.14257812 C48.509037 84.64865526 45.00511852 79.16773468 41.5 73.6875 C40.84201416 72.65681396 40.18402832 71.62612793 39.50610352 70.56420898 C36.09862158 65.23656552 32.64874288 59.95324832 29.04882812 54.75317383 C28 53 28 53 28 51 C26.22750476 52.4354503 24.45706424 53.87343803 22.6875 55.3125 C21.70136719 56.11300781 20.71523438 56.91351562 19.69921875 57.73828125 C18.36310547 58.85783203 18.36310547 58.85783203 17 60 C16.45824631 60.42859818 15.91649261 60.85719635 15.35832214 61.29878235 C13.43888677 63.70276093 13.60193214 65.42803994 13.56762695 68.48120117 C13.54783279 69.60213669 13.52803864 70.7230722 13.50764465 71.87797546 C13.49805977 73.69214714 13.49805977 73.69214714 13.48828125 75.54296875 C13.47033005 76.78170242 13.45237885 78.0204361 13.43388367 79.29670715 C13.38884923 82.5862946 13.3565735 85.87568459 13.33044434 89.16546631 C13.30064061 92.52386017 13.25410977 95.88201762 13.20898438 99.24023438 C13.12388652 105.82673546 13.05715023 112.41319951 13 119 C8.71 119 4.42 119 0 119 C0 79.73 0 40.46 0 0 Z " fill="#F5821F" transform="translate(5201,3394)"/>
<path d="M0 0 C1.32 0 2.64 0 4 0 C12.64104562 17.76312704 21.12001046 35.58795048 29.39550781 53.52490234 C32.06759252 59.31225075 34.75297483 65.09341475 37.4375 70.875 C38.2250769 72.57378296 38.2250769 72.57378296 39.02856445 74.30688477 C41.9675106 80.64210511 44.92246059 86.96933411 47.89453125 93.2890625 C48.86438347 95.35474571 49.833977 97.42055015 50.80349731 99.48638916 C51.42951309 100.81818903 52.05683215 102.14937714 52.68551636 103.47991943 C53.5591383 105.32889103 54.42841188 107.17985099 55.296875 109.03125 C55.79541992 110.08892578 56.29396484 111.14660156 56.80761719 112.23632812 C58 115 58 115 59 119 C54.38 119 49.76 119 45 119 C40.40303511 109.92163638 35.90147347 100.79986908 31.5 91.625 C31.05479004 90.70372314 30.60958008 89.78244629 30.15087891 88.83325195 C29.74015137 87.97304443 29.32942383 87.11283691 28.90625 86.2265625 C28.53822266 85.45908691 28.17019531 84.69161133 27.79101562 83.90087891 C27 82 27 82 27 80 C10.5 80.33 -6 80.66 -23 81 C-26.6196875 88.4559375 -26.6196875 88.4559375 -30.3125 96.0625 C-31.06829346 97.61718994 -31.82408691 99.17187988 -32.6027832 100.77368164 C-33.21057525 102.02744542 -33.81824894 103.28126659 -34.42578125 104.53515625 C-34.7343103 105.16869019 -35.04283936 105.80222412 -35.36071777 106.45495605 C-37.36198165 110.59026532 -39.21790364 114.76543369 -41 119 C-45.95 119 -50.9 119 -56 119 C-54.62078889 114.86236668 -53.30706214 111.34859481 -51.41796875 107.4921875 C-50.90492187 106.43773438 -50.391875 105.38328125 -49.86328125 104.296875 C-49.31027344 103.16765625 -48.75726563 102.0384375 -48.1875 100.875 C-47.00091007 98.43634389 -45.81813082 95.99585577 -44.63671875 93.5546875 C-44.18273209 92.61698517 -44.18273209 92.61698517 -43.71957397 91.66033936 C-40.57159023 85.14151317 -37.5316062 78.57364297 -34.5 72 C-29.73619621 61.68093428 -24.85638257 51.42468254 -19.89916992 41.19726562 C-15.19483504 31.46682192 -10.64074032 21.67011683 -6.13671875 11.84570312 C-5.62367187 10.73130859 -5.110625 9.61691406 -4.58203125 8.46875 C-4.13061768 7.48326172 -3.6792041 6.49777344 -3.21411133 5.48242188 C-2 3 -2 3 0 0 Z M1 28 C-1.24939203 32.56795496 -3.49113609 37.13955544 -5.72607422 41.71459961 C-6.48638573 43.26834288 -7.24872614 44.82109512 -8.01318359 46.37280273 C-9.11579162 48.61180144 -10.21089557 50.85434006 -11.3046875 53.09765625 C-11.6443454 53.78336197 -11.9840033 54.46906769 -12.33395386 55.17555237 C-12.81422531 56.16578651 -12.81422531 56.16578651 -13.30419922 57.17602539 C-13.72389481 58.03207115 -13.72389481 58.03207115 -14.15206909 58.90541077 C-15.3440865 61.84997477 -16.127296 64.94553599 -17 68 C-4.46 68 8.08 68 21 68 C15.08161825 54.62884123 9.06912335 41.30336854 3 28 C2.34 28 1.68 28 1 28 Z " fill="#F5821F" transform="translate(4424,3393)"/>
</svg>
